<?xml version="1.0" encoding="utf-8"?>
<!-- Generator: Adobe Illustrator 19.1.0, SVG Export Plug-In . SVG Version: 6.00 Build 0)  -->
<svg version="1.1" id="Layer_1" xmlns="http://www.w3.org/2000/svg" xmlns:xlink="http://www.w3.org/1999/xlink" x="0px" y="0px"
	 viewBox="-158 266.1 277.1 309.8" style="enable-background:new -158 266.1 277.1 309.8;" xml:space="preserve">
<style type="text/css">
	.st0{fill:#5B7444;}
</style>
<path class="st0" d="M-81.7,484.3H-113V453h31.3V484.3z M-158,351.8v-27c0-12,9.7-21.8,21.8-21.8h6.7v-22c0-6,4.5-10.8,10-10.8
	s10,4.8,10,10.8v22h30v-22c0-6,4.5-10.8,10-10.8s10,4.8,10,10.8v22h30v-22c0-6,4.5-10.8,10-10.8s10,4.8,10,10.8v22h30v-22
	c0-6,4.5-10.8,10-10.8s10,4.8,10,10.8v22h30v-22c0-6,4.5-10.8,10-10.8s10,4.8,10,10.8v22h6.7c12,0,21.8,9.7,21.8,21.8v26.9
	L-158,351.8L-158,351.8z M64.8,326.5c0,8.6,7,15.5,15.5,15.5c8.6,0,15.5-7,15.5-15.5c0-4.6-2-8.8-5.2-11.6v6.4c0,6-4.5,10.8-10,10.8
	s-10-4.8-10-10.8v-6.9C67.1,317.3,64.8,321.5,64.8,326.5z M14.9,326.5c0,8.6,7,15.5,15.5,15.5c8.6,0,15.5-7,15.5-15.5
	c0-4.7-2.1-8.9-5.4-11.7v6.5c0,6-4.5,10.8-10,10.8s-10-4.8-10-10.8v-6.8C17.1,317.3,14.9,321.7,14.9,326.5z M-35,326.5
	c0,8.6,7,15.5,15.5,15.5c8.6,0,15.5-7,15.5-15.5c0-4.7-2.1-9-5.5-11.8v6.6c0,6-4.5,10.8-10,10.8s-10-4.8-10-10.8v-6.7
	C-32.8,317.5-35,321.7-35,326.5z M-84.9,326.5c0,8.6,7,15.5,15.5,15.5c8.6,0,15.5-7,15.5-15.5c0-4.8-2.2-9.1-5.6-11.9v6.7
	c0,6-4.5,10.8-10,10.8s-10-4.8-10-10.8v-6.5C-82.8,317.5-84.9,321.8-84.9,326.5z M-134.8,326.5c0,8.6,7,15.5,15.5,15.5
	c8.6,0,15.5-7,15.5-15.5c0-4.9-2.2-9.2-5.8-12v6.8c0,6-4.5,10.8-10,10.8s-10-4.8-10-10.8v-6.4C-132.7,317.7-134.8,321.8-134.8,326.5
	z M74.9,403.3H43.6v31.3h31.3C74.9,434.5,74.9,403.3,74.9,403.3z M-81.7,504.5H-113v31.3h31.3V504.5z M119.1,359.7v198.6
	c0,12-9.7,21.8-21.8,21.8h-233.5c-12,0-21.8-9.7-21.8-21.8V359.7H119.1z M94.8,383.5h-228.5v157c0,8.3,8,15,18,15H77
	c9.9,0,17.9-6.7,17.9-15L94.8,383.5L94.8,383.5z M74.9,453H43.6v31.3h31.3C74.9,484.3,74.9,453,74.9,453z M-29.5,403.3h-31.3v31.3
	h31.3C-29.5,434.5-29.5,403.3-29.5,403.3z M22.7,504.5H-8.6v31.3h31.3C22.7,535.8,22.7,504.5,22.7,504.5z M-29.5,453h-31.3v31.3
	h31.3C-29.5,484.3-29.5,453-29.5,453z M22.7,453H-8.6v31.3h31.3C22.7,484.3,22.7,453,22.7,453z M-29.5,504.5h-31.3v31.3h31.3
	C-29.5,535.8-29.5,504.5-29.5,504.5z M22.7,403.3H-8.6v31.3h31.3C22.7,434.5,22.7,403.3,22.7,403.3z"/>
</svg>
