<?xml version="1.0" encoding="utf-8"?>
<!-- Generator: Adobe Illustrator 19.1.0, SVG Export Plug-In . SVG Version: 6.00 Build 0)  -->
<svg version="1.1" id="Layer_1" xmlns="http://www.w3.org/2000/svg" xmlns:xlink="http://www.w3.org/1999/xlink" x="0px" y="0px"
	 viewBox="-105 197 400 400" style="enable-background:new -105 197 400 400;" xml:space="preserve">
<style type="text/css">
	.st0{fill:#063C0A;}
	.st1{fill:#F1F2F2;}
	.st2{fill:#FFFFFF;}
	.st3{fill:#ECF0F1;}
</style>
<circle class="st0" cx="95" cy="397" r="197.9"/>
<g>
	<circle class="st1" cx="95" cy="397" r="110.6"/>
</g>
<circle class="st2" cx="95" cy="397" r="103.8"/>
<circle class="st3" cx="95" cy="397" r="66.6"/>
<g>
	<path class="st2" d="M-26.2,351.7c0,0.2,0,0.4-0.1,0.6c0.1,0.2,0.1,0.4,0.1,0.7c0,9.9-7.1,18.1-16.5,19.8v5.4
		c0.2,0.1,0.4,0.2,0.6,0.3c1.1,0.7,1.8,1.6,1.8,2.6v116.3c0,2-2.7,3.6-6.1,3.6c-1.7,0-3.2-0.4-4.3-1.1s-1.8-1.6-1.8-2.6V381
		c0-1.2,0.9-2.2,2.4-2.9v-5.4c-9.4-1.7-16.5-9.9-16.5-19.8c0-0.2,0-0.4,0.1-0.7c-0.1-0.2-0.1-0.4-0.1-0.6v-56.1
		c0-1.3,1.1-2.4,2.4-2.4c0.7,0,1.3,14.6,1.7,29.3c0.3,11.5,0.6,22.9,0.7,27.4h6.9c0.2-10.1,1.2-56.7,2.4-56.7c0.7,0,1.3,0.3,1.7,0.7
		s0.7,1,0.7,1.7v54.3h7.3v-54.3c0-1.3,1.1-2.4,2.4-2.4c0.7,0,1.3,14.6,1.7,29.3c0.3,11.5,0.6,22.9,0.7,27.4h7
		c0.2-10.1,1.2-56.7,2.4-56.7c0.7,0,1.3,0.3,1.7,0.7c0.4,0.4,0.7,1,0.7,1.7C-26.2,295.5-26.2,351.7-26.2,351.7z"/>
</g>
<g>
	<path class="st2" d="M242.9,364.4v11.4c0.2,0.1,0.4,0.2,0.6,0.3c1.1,0.7,1.8,1.6,1.8,2.6V495c0,2-2.7,3.6-6.1,3.6
		c-1.7,0-3.2-0.4-4.3-1.1s-1.8-1.6-1.8-2.6V378.7c0-1.2,0.9-2.2,2.4-2.9v-11.4c-12.5-2.4-22.1-16.9-22.1-34.3
		c0-19.2,11.5-34.7,25.7-34.7s25.7,15.5,25.7,34.7C265,347.6,255.4,362.1,242.9,364.4z"/>
</g>
</svg>
