<?xml version="1.0" encoding="utf-8"?>
<!-- Generator: Adobe Illustrator 19.1.0, SVG Export Plug-In . SVG Version: 6.00 Build 0)  -->
<svg version="1.1" id="Layer_1" xmlns="http://www.w3.org/2000/svg" xmlns:xlink="http://www.w3.org/1999/xlink" x="0px" y="0px"
	 viewBox="-105 197 400 400" style="enable-background:new -105 197 400 400;" xml:space="preserve">
<style type="text/css">
	.st0{fill:#063C0A;}
	.st1{fill:#FFFFFF;}
</style>
<path class="st0" d="M292.4,399c0,42.6-13.5,82.1-36.5,114.4c-5.2,7.3-10.9,14.2-17,20.7c-36,38.3-87.2,62.3-143.9,62.3
	c-1,0-2.1,0-3.1,0c-3.8,0-7.5-0.2-11.2-0.5c-1.9-0.1-3.9-0.3-5.8-0.5c-3.8-0.4-7.5-0.9-11.2-1.5c-36.1-5.7-68.9-21.2-95.6-43.7
	c-6-5-11.7-10.4-17-16.1c-33.2-35.3-53.5-82.8-53.5-135.1c0-109,88.4-197.4,197.4-197.4S292.4,290,292.4,399z"/>
<g>
	<g>
		<circle class="st1" cx="7.4" cy="427.7" r="40.5"/>
		<path class="st1" d="M63.7,532.8V594c-36.1-5.7-68.9-21.2-95.6-43.7c-6-5-11.7-10.4-17-16.1v-1.4c0-31.1,25.2-56.3,56.3-56.3
			C38.5,476.4,63.7,501.7,63.7,532.8z"/>
	</g>
	<g>
		<circle class="st1" cx="156.9" cy="335.7" r="59.1"/>
		<path class="st1" d="M238.9,488.7v45.5c-36,38.2-87.2,62.2-143.9,62.2c-1,0-2.1,0-3.1,0c-3.8,0-7.5-0.2-11.2-0.5
			c-1.9-0.1-3.9-0.3-5.8-0.5V488.7c0-45.3,36.7-82,82-82C202.2,406.6,238.9,443.2,238.9,488.7z"/>
	</g>
</g>
</svg>
